<?xml version="1.0" standalone="no"?>
<!DOCTYPE svg PUBLIC "-//W3C//DTD SVG 1.1//EN"
"http://www.w3.org/Graphics/SVG/1.1/DTD/svg11.dtd">
<svg width="800" height="600" version="1.1" xmlns="http://www.w3.org/2000/svg"><g><rect x="0" y="0" width="800" height="600" fill="#f9f9f9" /><g transform="translate(40 40)"><g transform="translate(40 0)"><text x="0" y="0" fill="#333" font-family="Monaco" font-size="16">DATA</text></g><g transform="translate(0 20)"><g transform="translate(40 0)"><g class="axis bottom"><g class="tick"><line x1="42.5" y1="0" x2="42.5" y2="482.0" stroke="#eee" stroke-width="1" /><text x="42.5" y="486.0" dy="1em" fill="#9c9c9c" text-anchor="middle" font-family="Monaco">12</text></g><g class="tick"><line x1="127.5" y1="0" x2="127.5" y2="482.0" stroke="#eee" stroke-width="1" /><text x="127.5" y="486.0" dy="1em" fill="#9c9c9c" text-anchor="middle" font-family="Monaco">13</text></g><g class="tick"><line x1="212.5" y1="0" x2="212.5" y2="482.0" stroke="#eee" stroke-width="1" /><text x="212.5" y="486.0" dy="1em" fill="#9c9c9c" text-anchor="middle" font-family="Monaco">18</text></g><g class="tick"><line x1="297.5" y1="0" x2="297.5" y2="482.0" stroke="#eee" stroke-width="1" /><text x="297.5" y="486.0" dy="1em" fill="#9c9c9c" text-anchor="middle" font-family="Monaco">19</text></g><g class="tick"><line x1="382.5" y1="0" x2="382.5" y2="482.0" stroke="#eee" stroke-width="1" /><text x="382.5" y="486.0" dy="1em" fill="#9c9c9c" text-anchor="middle" font-family="Monaco">20</text></g><g class="tick"><line x1="467.5" y1="0" x2="467.5" y2="482.0" stroke="#eee" stroke-width="1" /><text x="467.5" y="486.0" dy="1em" fill="#9c9c9c" text-anchor="middle" font-family="Monaco">21</text></g><g class="tick"><line x1="552.5" y1="0" x2="552.5" y2="482.0" stroke="#eee" stroke-width="1" /><text x="552.5" y="486.0" dy="1em" fill="#9c9c9c" text-anchor="middle" font-family="Monaco">22</text></g><g class="tick"><line x1="637.5" y1="0" x2="637.5" y2="482.0" stroke="#eee" stroke-width="1" /><text x="637.5" y="486.0" dy="1em" fill="#9c9c9c" text-anchor="middle" font-family="Monaco">23</text></g></g><g class="axis left"><g class="tick"><line x1="-4" y1="318.6666666666666666666666667" x2="680.0" y2="318.6666666666666666666666667" stroke="#eee" stroke-width="1" /><text x="-8" y="318.6666666666666666666666667" dy="0.32em" fill="#9c9c9c" text-anchor="end" font-family="Monaco">1000</text></g><g class="tick"><line x1="-4" y1="159.3333333333333333333333333" x2="680.0" y2="159.3333333333333333333333333" stroke="#eee" stroke-width="1" /><text x="-8" y="159.3333333333333333333333333" dy="0.32em" fill="#9c9c9c" text-anchor="end" font-family="Monaco">2000</text></g><g class="tick"><line x1="-4" y1="0" x2="680.0" y2="0" stroke="#eee" stroke-width="1" /><text x="-8" y="0" dy="0.32em" fill="#9c9c9c" text-anchor="end" font-family="Monaco">3000</text></g><g class="tick"><line x1="-4" y1="478" x2="680.0" y2="478" stroke="#a8a8a8" stroke-width="1" /><text x="-8" y="478" dy="0.32em" fill="#9c9c9c" text-anchor="end" font-family="Monaco">0</text></g></g><g><g class="series columns"><rect x="4.25" y="416.1786666666666666666666667" width="76.50" height="61.8213333333333333333333333" fill="#e41a1c" /><rect x="89.25" y="391.96" width="76.50" height="86.04" fill="#e41a1c" /><rect x="174.25" y="229.7586666666666666666666667" width="76.50" height="248.2413333333333333333333333" fill="#e41a1c" /><rect x="259.25" y="449.4793333333333333333333333" width="76.50" height="28.5206666666666666666666667" fill="#e41a1c" /><rect x="344.25" y="427.332" width="76.50" height="50.668" fill="#e41a1c" /><rect x="429.25" y="156.4653333333333333333333333" width="76.50" height="321.5346666666666666666666667" fill="#e41a1c" /><rect x="514.25" y="203.9466666666666666666666667" width="76.50" height="274.0533333333333333333333333" fill="#e41a1c" /><rect x="599.25" y="434.024" width="76.50" height="43.976" fill="#e41a1c" /></g></g></g></g></g></g></svg>